<svg xmlns="http://www.w3.org/2000/svg" viewBox="0 0 379.253 351.734">
  <defs>
    <style>
      .cls-1, .cls-13, .cls-15, .cls-16, .cls-17, .cls-18, .cls-19, .cls-20, .cls-28, .cls-4, .cls-6 {
        fill: #3c7afc;
      }

      .cls-1, .cls-2 {
        opacity: 0.17;
      }

      .cls-12, .cls-14, .cls-2, .cls-3, .cls-34, .cls-37 {
        fill: #00c4a6;
      }

      .cls-3 {
        opacity: 0.099;
      }

      .cls-22, .cls-37, .cls-4 {
        opacity: 0.18;
      }

      .cls-5 {
        fill: #eff3fb;
      }

      .cls-7 {
        fill: #fff;
      }

      .cls-8 {
        fill: #4d7eb7;
        font-size: 6.572px;
      }

      .cls-59, .cls-8 {
        font-family: Helvetica;
      }

      .cls-9 {
        fill: #fc846d;
      }

      .cls-10 {
        fill: #f9d452;
      }

      .cls-11 {
        fill: #57be8b;
      }

      .cls-12 {
        opacity: 0.451;
      }

      .cls-13 {
        opacity: 0.454;
      }

      .cls-14 {
        opacity: 0.453;
      }

      .cls-15 {
        opacity: 0.45;
      }

      .cls-16 {
        opacity: 0.45;
      }

      .cls-17 {
        opacity: 0.199;
      }

      .cls-18 {
        opacity: 0.449;
      }

      .cls-19 {
        opacity: 0.451;
      }

      .cls-20 {
        opacity: 0.457;
      }

      .cls-21 {
        fill: #fe9887;
      }

      .cls-23 {
        fill: #ddd6ff;
      }

      .cls-24 {
        fill: #f7d3a9;
      }

      .cls-25 {
        fill: #ffc359;
      }

      .cls-26 {
        fill: #353e70;
      }

      .cls-27 {
        fill: #d69e43;
      }

      .cls-28 {
        opacity: 0.25;
      }

      .cls-29 {
        fill: #212f4d;
      }

      .cls-30 {
        fill: #243453;
      }

      .cls-31 {
        fill: #324774;
      }

      .cls-32 {
        fill: #90b0f2;
      }

      .cls-33 {
        fill: #7fbbef;
      }

      .cls-35 {
        fill: #30446c;
      }

      .cls-36 {
        fill: #ce6c5f;
      }

      .cls-38 {
        opacity: 0.249;
      }

      .cls-39 {
        opacity: 0.25;
      }

      .cls-40 {
        fill: #c8d8fa;
      }

      .cls-41 {
        fill: #dba246;
      }

      .cls-42 {
        fill: #24b49d;
      }

      .cls-43 {
        opacity: 0.246;
      }

      .cls-44 {
        opacity: 0.249;
      }

      .cls-45 {
        opacity: 0.247;
      }

      .cls-46 {
        opacity: 0.249;
      }

      .cls-47 {
        opacity: 0.246;
      }

      .cls-48 {
        fill: #d3ab84;
      }

      .cls-49 {
        fill: #f4f3ff;
      }

      .cls-50 {
        opacity: 0.251;
      }

      .cls-51 {
        fill: #232049;
      }

      .cls-52 {
        opacity: 0.247;
      }

      .cls-53 {
        opacity: 0.252;
      }

      .cls-54 {
        opacity: 0.251;
      }

      .cls-55 {
        fill: #1c273e;
      }

      .cls-56 {
        opacity: 0.251;
      }

      .cls-57 {
        fill: none;
        stroke: #7972a8;
        stroke-miterlimit: 10;
        stroke-width: 0.05px;
      }

      .cls-58 {
        fill: #ffd052;
      }

      .cls-59 {
        fill: #f5f1eb;
        font-size: 22.393px;
      }
    </style>
  </defs>
  <g id="Objects" transform="translate(-55.232 -128.836)">
    <ellipse id="Ellipse_1" data-name="Ellipse 1" class="cls-1" cx="24.845" cy="2.337" rx="24.845" ry="2.337" transform="translate(117.313 475.897)"/>
    <path id="Path_1" data-name="Path 1" class="cls-2" d="M113.759,433.823c0,1.291-11.124,2.337-24.845,2.337s-24.845-1.046-24.845-2.337,11.123-2.337,24.845-2.337S113.759,432.532,113.759,433.823Z"/>
    <ellipse id="Ellipse_2" data-name="Ellipse 2" class="cls-1" cx="30.79" cy="2.337" rx="30.79" ry="2.337" transform="translate(370.074 435.488)"/>
    <path id="Path_2" data-name="Path 2" class="cls-2" d="M240.065,433c0,1.129-9.755,2.044-21.788,2.044S196.49,434.132,196.49,433s9.755-2.044,21.787-2.044S240.065,431.874,240.065,433Z"/>
    <g id="Group_2" data-name="Group 2">
      <path id="Path_3" data-name="Path 3" class="cls-3" d="M116.045,176.376V430.959h270.5V184.8Z"/>
      <path id="Path_6" data-name="Path 6" class="cls-4" d="M234.883,265.065l1.522,64.22,133.69-1.073-6.182-75.088Z"/>
      <path id="Path_7" data-name="Path 7" class="cls-5" d="M114.733,191.219l271.808,1.918V182.109l-271.808-6.27Z"/>
      <path id="Path_8" data-name="Path 8" class="cls-6" d="M114.733,191.219V213.57H386.541V193.137Z"/>
      <circle id="Ellipse_3" data-name="Ellipse 3" class="cls-7" cx="7.912" cy="7.912" r="7.912" transform="translate(131.739 208.284) rotate(-76.763)"/>
      <path id="Path_9" data-name="Path 9" class="cls-7" d="M158.947,199.7v5.4h39.566v-5.4"/>
      <path id="Path_10" data-name="Path 10" class="cls-7" d="M220.592,195.956v14.35H320.858v-13.2Z"/>
      <text id="Text" class="cls-8" transform="translate(227.28 206.016)"><tspan x="0" y="0">Text</tspan></text>
      <g id="Group_1" data-name="Group 1">
        <circle id="Ellipse_4" data-name="Ellipse 4" class="cls-9" cx="1.651" cy="1.651" r="1.651" transform="translate(122.287 182.837)"/>
        <circle id="Ellipse_5" data-name="Ellipse 5" class="cls-10" cx="1.651" cy="1.651" r="1.651" transform="translate(130.099 182.837)"/>
        <path id="Path_11" data-name="Path 11" class="cls-11" d="M141.252,184.488a1.65,1.65,0,1,1-1.65-1.651A1.65,1.65,0,0,1,141.252,184.488Z"/>
      </g>
      <rect id="Rectangle_2" data-name="Rectangle 2" class="cls-12" width="3.623" height="45.607" transform="translate(137.79 231.275)"/>
      <path id="Path_12" data-name="Path 12" class="cls-13" d="M149.164,234.58v3.829h49.349l.613-4.343Z"/>
      <path id="Path_13" data-name="Path 13" class="cls-14" d="M232.539,229.548v3.83h137.71l1.711-4.343Z"/>
      <path id="Path_14" data-name="Path 14" class="cls-15" d="M232.539,333.03v3.829h137.71l1.711-4.344Z"/>
      <path id="Path_15" data-name="Path 15" class="cls-16" d="M232.539,242.638v3.83h52.4l.65-4.343Z"/>
      <path id="Path_16" data-name="Path 16" class="cls-17" d="M232.539,346.289v3.83h52.4l.65-4.344Z"/>
      <path id="Path_17" data-name="Path 17" class="cls-18" d="M149.593,246.467V250.3h49.349l.185-3.487Z"/>
      <path id="Path_18" data-name="Path 18" class="cls-19" d="M149.378,259.088v3.829h49.349l.185-3.486Z"/>
      <path id="Path_19" data-name="Path 19" class="cls-20" d="M149.378,273.054v3.829h49.349l.185-3.486Z"/>
      <path id="Path_20" data-name="Path 20" class="cls-21" d="M234.883,261.483l5.595,67.958L369.615,318.81l-5.7-69.268Z"/>
    </g>
    <g id="Group_3" data-name="Group 3" class="cls-22">
      <path id="Path_21" data-name="Path 21" class="cls-6" d="M350.912,320.673a25.31,25.31,0,0,1-2.251-6.97,2.889,2.889,0,0,1-.025-1.167,1.976,1.976,0,0,1,2.189-1.285,4.07,4.07,0,0,1,2.335,1.4c.631.678,1.158,1.452,1.839,2.081a9.032,9.032,0,0,0,1.534,1.1,18.306,18.306,0,0,0,3.929,1.75,5.505,5.505,0,0,1,2.428,1.146,6.747,6.747,0,0,1-2.985.363,38.179,38.179,0,0,0-9.286.986.934.934,0,0,1,.9-.177"/>
    </g>
    <g id="Group_4" data-name="Group 4" class="cls-22">
      <path id="Path_22" data-name="Path 22" class="cls-6" d="M369.165,304.3c-2.511-1.251-3.212-4.421-3.866-7.149a49.513,49.513,0,0,0-5.885-14.234,7.777,7.777,0,0,1-1.16-2.466,4.457,4.457,0,0,1,2.286-4.5,7.468,7.468,0,0,1,5.237-.609Z"/>
    </g>
    <g id="Group_46" data-name="Group 46">
      <g id="Group_30" data-name="Group 30">
        <path id="Path_23" data-name="Path 23" class="cls-23" d="M380.895,410.745l1.584,2.553,1.988-.945-1.786-2.789Z"/>
        <path id="Path_24" data-name="Path 24" class="cls-6" d="M390.015,419.662s-8.861-2.092-10.266-1.021,10.35,2.627,10.35,2.627Z"/>
        <path id="Path_25" data-name="Path 25" class="cls-24" d="M356.81,318.621s.068-4.457-.194-4.536c-.76-.229-.932,2.067-.932,2.067s-1.366-4.415-2.013-4.212c-.4.125.134,2.66.134,2.66s-1.138-2.044-1.7-1.915c-.548.125.607,2.857.607,2.857s-.986-1.319-1.5-1.155c-.351.113,3.193,6.14,3.193,6.14Z"/>
        <path id="Path_26" data-name="Path 26" class="cls-6" d="M375.61,352.885s-14.12,17.093-7.06,37.158,11.839,22.194,11.839,22.194l4.089-2.138s-7.864-18.8-8.2-25.645c-.308-6.226,10.547-20.793,10.547-20.793L384.621,419l5.208.667s13.907-61.95,12.421-66.781S394.56,340.994,375.61,352.885Z"/>
        <path id="Path_27" data-name="Path 27" class="cls-25" d="M372.548,329.476l3.062,23.409,25.254-2.954L390.63,313.368l-7.591,1.218-5.406.631c-3.073.359-4.993.915-7.219,3.063l-8.81,10.07-4.367-10.5-3.844,1.922s3.146,19.111,8.1,17.152C364.874,335.589,372.548,329.476,372.548,329.476Z"/>
        <path id="Path_28" data-name="Path 28" class="cls-25" d="M368.179,284.143s5.573,14.12,6.316,16.349,16.135,12.876,16.135,12.876l-7.591,3.474-14.86-13.773-3.345-18.926Z"/>
        <g id="Group_5" data-name="Group 5">
          <path id="Path_29" data-name="Path 29" class="cls-24" d="M374.025,299.02l-2.144,7.374A3.085,3.085,0,0,0,374,310.223l.971.277v5.271h4.479a2.862,2.862,0,0,0,2.861-2.861V300.9Z"/>
          <path id="Path_30" data-name="Path 30" class="cls-26" d="M378.278,310.957a4.238,4.238,0,0,1-2.011-3.193s3.129-.089,2.292-2.261c-.52-1.349-2.31-.278-2.31-.278s.715-2.7.275-3.559c0,0-5.374-.007-4.5-3.174a8.228,8.228,0,0,1,4.876-1.547c3.382-.191,5.245,5.521,5.245,5.521l-2.85,8.17A.66.66,0,0,1,378.278,310.957Z"/>
        </g>
        <path id="Path_31" data-name="Path 31" class="cls-24" d="M364.94,284.143s-2.821-3.451-2.665-3.675c.453-.652,2.016,1.04,2.016,1.04s-1.674-4.307-1.041-4.551c.389-.149,1.547,2.167,1.547,2.167s-.378-2.309.143-2.557,1.3,2.616,1.3,2.616-.047-1.648.455-1.835c.345-.13,1.314,6.8,1.314,6.8Z"/>
        <g id="Group_6" data-name="Group 6">
          <path id="Path_32" data-name="Path 32" class="cls-27" d="M378.248,325.4a7.81,7.81,0,0,1-.881.651c-.535.41-1.286.98-2.131,1.578a18.191,18.191,0,0,1-3.174,2.017,18.124,18.124,0,0,1,2.947-2.336c.847-.6,1.618-1.131,2.2-1.49S378.231,325.348,378.248,325.4Z"/>
        </g>
        <g id="Group_7" data-name="Group 7">
          <path id="Path_33" data-name="Path 33" class="cls-27" d="M382.376,311.113c.005-.01.048-.011.112.036a.479.479,0,0,1,.154.3,4.046,4.046,0,0,1-.069,1.135,4.526,4.526,0,0,1-.578,1.59,3.142,3.142,0,0,1-.67.777,3.1,3.1,0,0,1-.966.531,12.4,12.4,0,0,1-3.659.543,4.236,4.236,0,0,1-1.518-.164,9.69,9.69,0,0,1,1.508-.114,15.917,15.917,0,0,0,3.537-.635,2.761,2.761,0,0,0,1.463-1.132,4.789,4.789,0,0,0,.612-1.454,6.038,6.038,0,0,0,.187-1.061A.6.6,0,0,0,382.376,311.113Z"/>
        </g>
        <g id="Group_8" data-name="Group 8">
          <path id="Path_34" data-name="Path 34" class="cls-27" d="M361.328,331.66c.037,0,.072.1.1.29l-.2,0a8.02,8.02,0,0,1-.079-1.741,4.388,4.388,0,0,1,.386-2,6.979,6.979,0,0,1,.006,2.02c-.036.731-.065,1.371-.111,1.716l-.2,0C361.258,331.765,361.292,331.661,361.328,331.66Z"/>
        </g>
        <g id="Group_9" data-name="Group 9">
          <path id="Path_35" data-name="Path 35" class="cls-27" d="M362.2,330.839c-.106.02-.328-.658-.495-1.516a3.35,3.35,0,0,1-.109-1.592c.106-.02.328.659.495,1.517A3.346,3.346,0,0,1,362.2,330.839Z"/>
        </g>
        <g id="Group_10" data-name="Group 10">
          <path id="Path_36" data-name="Path 36" class="cls-27" d="M357.558,318.866a13.244,13.244,0,0,1-4.247,1.623,13.3,13.3,0,0,1,4.247-1.623Z"/>
        </g>
        <g id="Group_11" data-name="Group 11">
          <path id="Path_37" data-name="Path 37" class="cls-27" d="M399.717,347.663a3.143,3.143,0,0,1-.838.532,13.346,13.346,0,0,1-2.537.94c-2.2.59-5.261,1.3-8.673,1.93-1.706.319-3.338.584-4.825.8s-2.828.411-3.973.476a9.941,9.941,0,0,1-2.7-.166,2.966,2.966,0,0,1-.942-.315c.009-.031.346.071.969.164a11.229,11.229,0,0,0,2.658.039c1.121-.1,2.455-.324,3.937-.555s3.106-.515,4.809-.832c3.4-.633,6.468-1.3,8.673-1.814a16.152,16.152,0,0,0,2.543-.809C399.395,347.811,399.7,347.636,399.717,347.663Z"/>
        </g>
        <path id="Path_38" data-name="Path 38" class="cls-28" d="M378.035,325.224s-1.51,10.915-4.579,12.648l-1.042-7.965Z"/>
        <path id="Path_39" data-name="Path 39" class="cls-26" d="M373.181,300.95a3.876,3.876,0,0,1-1.257-1.532,3.259,3.259,0,0,1,.675-2.788c.7-.435,1.586-.049,2.4.066a14.926,14.926,0,0,0,3.653-.435c1.225-.133,3.1.268,3.473,1.441.077.241-.243.544,0,.614.1.03.481-.6.588-.614.95-.089.054-.338,0,.614s2.6,7.72,2.382,8.648c-.482,2.032-1.493.373-2.382,2.262-.7,1.487-2.911,2.8-4.435,1.731l1.948-8.6Z"/>
        <path id="Path_40" data-name="Path 40" class="cls-6" d="M384.467,412.353s-8.324,3.687-8.8,5.389,9.834-4.16,9.834-4.16Z"/>
        <g id="Group_12" data-name="Group 12">
          <path id="Path_41" data-name="Path 41" class="cls-29" d="M376.2,382.038a16.991,16.991,0,0,1-5.127,2.725,29.459,29.459,0,0,1,5.127-2.725Z"/>
        </g>
        <g id="Group_13" data-name="Group 13">
          <path id="Path_42" data-name="Path 42" class="cls-29" d="M376.093,384.457a11.923,11.923,0,0,1-1.77,1.006,11.733,11.733,0,0,1-1.755,1.032c-.073-.072.551-.792,1.559-1.371A3.645,3.645,0,0,1,376.093,384.457Z"/>
        </g>
        <g id="Group_14" data-name="Group 14">
          <path id="Path_43" data-name="Path 43" class="cls-30" d="M394.511,389.123a14.709,14.709,0,0,1-5.7-1.806,52.655,52.655,0,0,1,5.7,1.806Z"/>
        </g>
        <g id="Group_15" data-name="Group 15">
          <path id="Path_44" data-name="Path 44" class="cls-30" d="M394.894,388.357a13.739,13.739,0,0,1-5.45-2.331,64.542,64.542,0,0,1,5.45,2.331Z"/>
        </g>
        <g id="Group_29" data-name="Group 29">
          <g id="Group_16" data-name="Group 16">
            <path id="Path_45" data-name="Path 45" class="cls-31" d="M380.9,410.917c.093-.057.324.148.517.455s.274.6.183.663-.323-.145-.516-.455S380.812,410.974,380.9,410.917Z"/>
          </g>
          <g id="Group_17" data-name="Group 17">
            <path id="Path_46" data-name="Path 46" class="cls-31" d="M378.263,406.272c.1-.051.46.432.813,1.078s.563,1.212.469,1.266-.458-.428-.814-1.078S378.167,406.321,378.263,406.272Z"/>
          </g>
          <g id="Group_18" data-name="Group 18">
            <path id="Path_47" data-name="Path 47" class="cls-31" d="M375.939,401.458c.1-.044.431.463.74,1.131s.479,1.248.381,1.3-.427-.458-.738-1.131S375.841,401.5,375.939,401.458Z"/>
          </g>
          <g id="Group_19" data-name="Group 19">
            <path id="Path_48" data-name="Path 48" class="cls-31" d="M373.944,396.5c.1-.037.4.49.662,1.178s.4,1.277.294,1.318-.4-.486-.661-1.178S373.843,396.537,373.944,396.5Z"/>
          </g>
          <g id="Group_20" data-name="Group 20">
            <path id="Path_49" data-name="Path 49" class="cls-31" d="M372.288,391.419c.1-.029.36.517.579,1.22s.31,1.3.206,1.335-.363-.512-.582-1.22S372.181,391.449,372.288,391.419Z"/>
          </g>
          <g id="Group_21" data-name="Group 21">
            <path id="Path_50" data-name="Path 50" class="cls-31" d="M371.041,386.222c.106-.019.317.549.471,1.266s.191,1.322.087,1.348-.317-.541-.471-1.267S370.935,386.241,371.041,386.222Z"/>
          </g>
          <g id="Group_22" data-name="Group 22">
            <path id="Path_51" data-name="Path 51" class="cls-31" d="M370.485,380.911c.109,0,.236.589.284,1.32s0,1.334-.109,1.347-.234-.579-.283-1.321S370.377,380.913,370.485,380.911Z"/>
          </g>
          <g id="Group_23" data-name="Group 23">
            <path id="Path_52" data-name="Path 52" class="cls-31" d="M370.742,375.576c.108.014.145.617.082,1.348s-.2,1.319-.309,1.315-.145-.608-.081-1.348S370.635,375.562,370.742,375.576Z"/>
          </g>
          <g id="Group_24" data-name="Group 24">
            <path id="Path_53" data-name="Path 53" class="cls-31" d="M371.753,370.331c.1.028.057.631-.107,1.347s-.381,1.278-.488,1.258-.059-.622.106-1.346S371.648,370.3,371.753,370.331Z"/>
          </g>
          <g id="Group_25" data-name="Group 25">
            <path id="Path_54" data-name="Path 54" class="cls-31" d="M373.442,365.264c.1.041-.024.633-.278,1.321s-.544,1.22-.646,1.186.021-.625.278-1.322S373.342,365.222,373.442,365.264Z"/>
          </g>
          <g id="Group_26" data-name="Group 26">
            <path id="Path_55" data-name="Path 55" class="cls-31" d="M375.74,360.44c.1.052-.1.625-.435,1.278s-.688,1.145-.786,1.1.1-.618.436-1.278S375.645,360.387,375.74,360.44Z"/>
          </g>
          <g id="Group_27" data-name="Group 27">
            <path id="Path_56" data-name="Path 56" class="cls-31" d="M378.585,355.917c.088.063-.172.609-.58,1.22s-.816,1.057-.907,1,.168-.6.581-1.22S378.5,355.853,378.585,355.917Z"/>
          </g>
          <g id="Group_28" data-name="Group 28">
            <path id="Path_57" data-name="Path 57" class="cls-31" d="M381.035,352.772c.082.07-.038.353-.268.633s-.488.451-.572.384.035-.351.269-.634S380.952,352.7,381.035,352.772Z"/>
          </g>
        </g>
      </g>
      <g id="Group_45" data-name="Group 45">
        <g id="Group_31" data-name="Group 31">
          <path id="Path_58" data-name="Path 58" class="cls-32" d="M416.946,437.825c-.265.054-3.77-16.143-7.829-36.172s-7.133-36.317-6.867-36.371,3.769,16.14,7.829,36.176S417.212,437.772,416.946,437.825Z"/>
        </g>
        <g id="Group_32" data-name="Group 32">
          <path id="Path_59" data-name="Path 59" class="cls-32" d="M428.926,437.825c-.267.054-3.772-16.143-7.83-36.172s-7.133-36.317-6.868-36.371,3.771,16.14,7.83,36.176S429.19,437.772,428.926,437.825Z"/>
        </g>
        <rect id="Rectangle_3" data-name="Rectangle 3" class="cls-32" width="36.052" height="6.816" transform="translate(380.895 358.466)"/>
        <g id="Group_35" data-name="Group 35">
          <g id="Group_33" data-name="Group 33">
            <path id="Path_60" data-name="Path 60" class="cls-32" d="M397.111,361.892c.267.047-2.456,17.083-6.082,38.048s-6.782,37.931-7.05,37.885,2.456-17.08,6.083-38.052S396.844,361.846,397.111,361.892Z"/>
          </g>
          <g id="Group_34" data-name="Group 34">
            <path id="Path_61" data-name="Path 61" class="cls-32" d="M387.46,361.892c.267.047-2.456,17.083-6.082,38.048s-6.782,37.931-7.05,37.885,2.456-17.08,6.083-38.052S387.192,361.846,387.46,361.892Z"/>
          </g>
        </g>
        <path id="Path_62" data-name="Path 62" class="cls-32" d="M408.386,395.569h11.979l.56,2.767H408.946Z"/>
        <g id="Group_36" data-name="Group 36">
          <path id="Path_63" data-name="Path 63" class="cls-32" d="M385.5,430.25c.039.269-2.135.807-4.854,1.2s-4.957.5-5,.231,2.134-.806,4.855-1.2S385.465,429.981,385.5,430.25Z"/>
        </g>
        <g id="Group_37" data-name="Group 37">
          <path id="Path_64" data-name="Path 64" class="cls-32" d="M386.529,423.944c.039.269-2.135.807-4.854,1.2s-4.956.5-4.995.23,2.133-.806,4.853-1.2S386.49,423.676,386.529,423.944Z"/>
        </g>
        <g id="Group_38" data-name="Group 38">
          <path id="Path_65" data-name="Path 65" class="cls-32" d="M387.605,416.619c.039.268-2.134.807-4.854,1.2s-4.956.5-4.995.231,2.134-.806,4.854-1.2S387.566,416.351,387.605,416.619Z"/>
        </g>
        <g id="Group_39" data-name="Group 39">
          <path id="Path_66" data-name="Path 66" class="cls-32" d="M388.9,409.294c.039.268-2.134.807-4.853,1.2s-4.957.5-5,.231,2.134-.806,4.854-1.2S388.865,409.025,388.9,409.294Z"/>
        </g>
        <g id="Group_40" data-name="Group 40">
          <path id="Path_67" data-name="Path 67" class="cls-32" d="M389.79,402.789c.039.268-2.134.807-4.854,1.2s-4.957.5-5,.231,2.134-.806,4.855-1.2S389.751,402.521,389.79,402.789Z"/>
        </g>
        <g id="Group_41" data-name="Group 41">
          <path id="Path_68" data-name="Path 68" class="cls-32" d="M391.453,396.236c.039.268-2.134.806-4.853,1.2s-4.956.5-5,.23,2.134-.807,4.855-1.2S391.415,395.968,391.453,396.236Z"/>
        </g>
        <g id="Group_42" data-name="Group 42">
          <path id="Path_69" data-name="Path 69" class="cls-32" d="M392.53,389.123c.039.269-2.135.807-4.854,1.2s-4.956.5-4.995.232,2.133-.807,4.854-1.2S392.491,388.855,392.53,389.123Z"/>
        </g>
        <g id="Group_43" data-name="Group 43">
          <path id="Path_70" data-name="Path 70" class="cls-32" d="M393.829,381.321c.039.269-2.134.807-4.853,1.2s-4.957.5-5,.232,2.135-.807,4.855-1.2S393.79,381.054,393.829,381.321Z"/>
        </g>
        <g id="Group_44" data-name="Group 44">
          <path id="Path_71" data-name="Path 71" class="cls-32" d="M395.471,372.585c.039.268-2.135.807-4.855,1.2s-4.956.5-4.995.232,2.134-.807,4.854-1.2S395.432,372.317,395.471,372.585Z"/>
        </g>
      </g>
    </g>
    <g id="Group_57" data-name="Group 57">
      <path id="Path_72" data-name="Path 72" class="cls-24" d="M68.425,362.9s-1.617,4.747-.54,8.112,2.19,2.169,2.19,2.169a5.4,5.4,0,0,1-.576-3.217,6.815,6.815,0,0,1,.638-2.532l.9,3.964a11.126,11.126,0,0,0,.59-2c.254-1.231-.617-3.447-.392-4.578s.608-2.432.608-2.432Z"/>
      <path id="Path_73" data-name="Path 73" class="cls-24" d="M133.63,300.7l.268-1.754s-1.821-3.974-1.266-4.839a18.829,18.829,0,0,1,2.387-2.487l1.135.174a18.071,18.071,0,0,1,2.209,3.506c.183.872-.99,4-1.82,6.374Z"/>
      <path id="Path_74" data-name="Path 74" class="cls-33" d="M134.068,289.763l1.012,8.181,1.118-.254-1.037-8.093-.669-1.331Z"/>
      <path id="Path_75" data-name="Path 75" class="cls-24" d="M133.846,292.72l1.173-1.1a2.2,2.2,0,0,1-.695,2.453Z"/>
      <g id="Group_47" data-name="Group 47">
        <path id="Path_76" data-name="Path 76" class="cls-24" d="M106.433,428.889l.122,3-2.177.334-.087-3.311Z"/>
        <path id="Path_77" data-name="Path 77" class="cls-34" d="M104.378,432.224s8.959-1.621,10.306-.477-10.474,2.076-10.474,2.076Z"/>
      </g>
      <g id="Group_48" data-name="Group 48">
        <path id="Path_78" data-name="Path 78" class="cls-24" d="M75.05,418.334,72.549,420l-1.417-1.686,2.783-1.8Z"/>
        <path id="Path_79" data-name="Path 79" class="cls-34" d="M71.132,418.312s6.042,6.811,5.766,8.556S69.678,419,69.678,419Z"/>
      </g>
      <path id="Path_80" data-name="Path 80" class="cls-34" d="M109.975,354.2s7.53,6.949,7.656,32.723-8.864,42.875-8.864,42.875H102.43s10.394-32.363-1.285-53.824A84.018,84.018,0,0,1,76.55,420.1l-5-5.318S86.8,395.615,86.924,371.646c.024-4.749.82-7.153-.832-12.467Z"/>
      <path id="Path_81" data-name="Path 81" class="cls-21" d="M105.714,325.184s19.705-5.318,24.71-19.081l2.815-6.254,3.753,1.251s-.979,25.329-25.433,32.219l-.389,1.486a41.339,41.339,0,0,0-.185,20.215l2.47,5.118-26.322,5.946a63.726,63.726,0,0,1-.229-26.541s-5.734-1.27-15.346,25.642l-3.69-.741s5.317-36.133,24.4-41.137Z"/>
      <g id="Group_49" data-name="Group 49">
        <path id="Path_82" data-name="Path 82" class="cls-24" d="M106.091,310.4l1.487,6.907a2.84,2.84,0,0,1-2.191,3.376l-.91.19-.344,4.836-6.735-.479.971-13.644Z"/>
        <path id="Path_83" data-name="Path 83" class="cls-35" d="M100.7,321.459s2.661-1.172,2.759-3.185c0,0-3.5-2.159-2.313-3.086s3.056,1.342,3.056,1.342-1.04-3.112-.581-3.868c0,0,4.932.345,4.341-2.618a7.563,7.563,0,0,0-4.373-1.738c-3.09-.4-5.173,4.723-5.173,4.723Z"/>
        <path id="Path_84" data-name="Path 84" class="cls-35" d="M102.8,308.562a3.848,3.848,0,0,0-2.618-.841,8,8,0,0,0-6.147,2.9c-1.481,1.815-1.521,2.637-1.038,4.929.11.524,3.217,2.993,3.507,3.444.754,1.174-1.325,1.413,0,1.85,1.157.382,3.183,1.093,4.208.435,0,0-1.549-4.807-.562-7.694A19.208,19.208,0,0,1,102.8,308.562Z"/>
      </g>
      <path id="Path_86" data-name="Path 86" class="cls-34" d="M96.4,323.878a26.025,26.025,0,0,0-4.814,3.681A8.748,8.748,0,0,0,89,332.915a1.823,1.823,0,0,0,.383,1.431,1.66,1.66,0,0,0,.742.38c2.1.571,4.223-.669,6.047-1.857,3.042-1.981,6.135-4.006,8.441-6.809.17-.207.343-.487.214-.721a.693.693,0,0,0-.394-.264c-2.139-.786-5.814-.659-8.028-1.2"/>
      <g id="Group_50" data-name="Group 50">
        <path id="Path_87" data-name="Path 87" class="cls-36" d="M104.872,326.358a1.233,1.233,0,0,1-.185.308c-.132.193-.331.477-.592.838l-.436.6-.564.68-.651.78c-.242.266-.509.538-.784.829a21.621,21.621,0,0,1-4.352,3.542,17.341,17.341,0,0,1-3,1.45,13.342,13.342,0,0,1-3.507.747,9.624,9.624,0,0,1-1.836-.043,2.554,2.554,0,0,1-.9-.295,1.429,1.429,0,0,1-.635-.743,2.837,2.837,0,0,1,.1-1.774,13.811,13.811,0,0,1,.53-1.547,10.363,10.363,0,0,1,1.66-2.53c.609-.72,1.222-1.346,1.791-1.9,1.138-1.118,2.107-1.968,2.78-2.552.339-.288.6-.511.787-.657a1.242,1.242,0,0,1,.292-.21c.009.011-.074.1-.239.269s-.415.406-.737.711c-.641.618-1.58,1.5-2.686,2.634-.553.568-1.15,1.2-1.738,1.918a10.258,10.258,0,0,0-1.578,2.463,13.882,13.882,0,0,0-.5,1.512,2.511,2.511,0,0,0-.1,1.531,1.409,1.409,0,0,0,1.234.787,9.355,9.355,0,0,0,1.752.037,13.1,13.1,0,0,0,3.4-.717,17.519,17.519,0,0,0,2.942-1.4,22.4,22.4,0,0,0,4.341-3.428l.8-.8.67-.754.584-.656.461-.576c.278-.346.5-.613.649-.792S104.86,326.351,104.872,326.358Z"/>
      </g>
      <g id="Group_51" data-name="Group 51">
        <path id="Path_88" data-name="Path 88" class="cls-36" d="M104.886,328.227c.018.034-.342.211-.889.664a8.16,8.16,0,0,0-1.86,2.335,27.415,27.415,0,0,0-1.72,4.14,22.378,22.378,0,0,1-1.048,2.473,9.026,9.026,0,0,1-1.688,2.371,7.433,7.433,0,0,1-2.7,1.649,7.863,7.863,0,0,1-1.444.413,2.431,2.431,0,0,1-1.474-.166,1.954,1.954,0,0,1-.934-1.054,2.8,2.8,0,0,1-.182-1.278,6.89,6.89,0,0,1,.631-2.086l.216.133a.906.906,0,0,1-.838.257,1.167,1.167,0,0,1-.667-.362,1.238,1.238,0,0,1-.231-1.13,1.716,1.716,0,0,1,.318-.641c.1-.126.172-.175.18-.169a2.872,2.872,0,0,0-.361.839,1.1,1.1,0,0,0,.242.961.959.959,0,0,0,.555.274.668.668,0,0,0,.609-.2l.488-.58-.272.714a6.946,6.946,0,0,0-.557,2.013,2.5,2.5,0,0,0,.18,1.126,1.622,1.622,0,0,0,.78.863,2.088,2.088,0,0,0,1.258.118,7.422,7.422,0,0,0,1.368-.4,7.142,7.142,0,0,0,2.557-1.571,8.8,8.8,0,0,0,1.622-2.266,23.33,23.33,0,0,0,1.051-2.424,25.262,25.262,0,0,1,1.817-4.151,7.653,7.653,0,0,1,2.007-2.317,3.679,3.679,0,0,1,.4-.268,2.273,2.273,0,0,1,.31-.169C104.787,328.252,104.88,328.215,104.886,328.227Z"/>
      </g>
      <path id="Path_89" data-name="Path 89" class="cls-37" d="M93.891,342.53s-2.018,6.042,2.948,2.651,5.68-15.675,5.68-15.675S99.121,341.788,93.891,342.53Z"/>
      <g id="Group_52" data-name="Group 52" class="cls-38">
        <path id="Path_90" data-name="Path 90" d="M113.12,400.3c-.009.114-1.311.079-2.893.275s-2.839.532-2.875.423a9.262,9.262,0,0,1,5.768-.7Z"/>
      </g>
      <g id="Group_53" data-name="Group 53" class="cls-38">
        <path id="Path_91" data-name="Path 91" d="M113.94,398.214c.026.04-.26.294-.8.58a6.85,6.85,0,0,1-4.68.546c-.6-.152-.932-.334-.916-.379a16.894,16.894,0,0,0,3.259.132A16.854,16.854,0,0,0,113.94,398.214Z"/>
      </g>
      <g id="Group_54" data-name="Group 54" class="cls-38">
        <path id="Path_92" data-name="Path 92" d="M90.388,395.611a5.112,5.112,0,0,1-2.928-3.927c.112-.035.465,1.026,1.278,2.1S90.453,395.514,90.388,395.611Z"/>
      </g>
      <g id="Group_55" data-name="Group 55" class="cls-38">
        <path id="Path_93" data-name="Path 93" d="M89.827,396.272c-.057.013-.137-.2-.42-.406s-.746-.455-1.231-.749a7.783,7.783,0,0,1-1.75-1.134,4.536,4.536,0,0,1,1.95.8,5.967,5.967,0,0,1,1.221.886C89.884,395.975,89.878,396.273,89.827,396.272Z"/>
      </g>
      <g id="Group_56" data-name="Group 56" class="cls-39">
        <path id="Path_94" data-name="Path 94" d="M106.944,377.938a3.324,3.324,0,0,1-1.624-.241,29.923,29.923,0,0,1-3.579-1.637c-1.368-.69-2.6-1.332-3.475-1.816a6.771,6.771,0,0,1-1.388-.853,6.67,6.67,0,0,1,1.513.606c.911.419,2.159,1.023,3.527,1.712s2.579,1.365,3.5,1.726S106.95,377.875,106.944,377.938Z"/>
      </g>
    </g>
    <g id="Group_58" data-name="Group 58" class="cls-22">
      <path id="Path_95" data-name="Path 95" class="cls-6" d="M215.218,176.5a4.891,4.891,0,0,0-1.32,5.049,13.648,13.648,0,0,0,2.748,4.745q4.273,5.448,8.96,10.553a39.393,39.393,0,0,1,4.328,5.227c4.9,7.648,3.277,17.553,4.237,26.586.216,2.037,1.167,4.591,3.215,4.545a3.857,3.857,0,0,0,2.061-.859,16.642,16.642,0,0,0,6.917-13.007,14.585,14.585,0,0,1,.347-4.415c.664-1.951,2.418-3.281,3.8-4.813,2.855-3.172,4.192-7.389,5.452-11.468,1.444-4.675,2.848-9.933.592-14.275-1.6-3.075-4.755-5.033-7.973-6.316-10.477-4.177-22.249-2.619-33.41-.995"/>
    </g>
    <g id="Group_69" data-name="Group 69">
      <g id="Group_59" data-name="Group 59">
        <path id="Path_96" data-name="Path 96" class="cls-24" d="M243,230.532l.122,3-2.177.334-.087-3.311Z"/>
        <path id="Path_97" data-name="Path 97" class="cls-6" d="M240.949,233.868s8.959-1.62,10.306-.477-10.474,2.076-10.474,2.076Z"/>
      </g>
      <g id="Group_60" data-name="Group 60">
        <path id="Path_98" data-name="Path 98" class="cls-24" d="M249.517,214.132l-1.54,2.58-2-.912,1.739-2.819Z"/>
        <path id="Path_99" data-name="Path 99" class="cls-6" d="M245.972,215.8s8.384,3.546,8.886,5.24-9.9-3.994-9.9-3.994Z"/>
      </g>
      <path id="Path_100" data-name="Path 100" class="cls-21" d="M245.647,141.587c3.535-2.175-.976-4.055,3.169-3.846a4.484,4.484,0,0,0,2.74-.382,3.15,3.15,0,0,0,.947-3.31,6.782,6.782,0,0,0-6.255-5.21c-3.973-.11-7.424,3.319-11.4,3.118a19.06,19.06,0,0,1-4.4-1.116c-4.236-1.266-9.687-.593-11.788,3.3-.563,1.041-.832,2.228-1.452,3.237-1.759,2.863-5.619,3.425-8.446,5.243a10.45,10.45,0,0,0-4.646,9.588,5.612,5.612,0,0,0,1.986,4.07s4.277,5.455,13.958,0S245.647,141.587,245.647,141.587Z"/>
      <path id="Path_101" data-name="Path 101" class="cls-6" d="M237.492,151.968c1.508-1.713,24.628,23.617,29.563,26.284s3.8,0,3.8,0l-9.9-11.047-19.046-21.361Z"/>
      <path id="Path_102" data-name="Path 102" class="cls-40" d="M240.443,142.387a12.129,12.129,0,0,0-12.827,1.382l-.115.091c-6.361,5.089-14.4,15.088-12.015,32.23l22.474-2.667s-3.16-3.818.913-15.124c2.24-6.219,4.216-12.026,4.216-12.026Z"/>
      <path id="Path_103" data-name="Path 103" class="cls-6" d="M228.437,150.568s1.9,20.189,9.523,22.855,21.333,2.667,21.333,2.667,1.053-1.4-13.53-4.888q-.907-.217-1.9-.445s-8.268-4.777-7.841-19.384a11,11,0,0,0-.107-1.979c-.328-2.149-1.367-6.463-4.4-6.064C227.5,143.86,228.437,150.568,228.437,150.568Z"/>
      <path id="Path_104" data-name="Path 104" class="cls-25" d="M215.486,176.09s17.141,20.57,20.57,26.665,1.9,27.753,3.047,28.352,5.519.007,5.519.007l.271-16.437.184-8.607a32,32,0,0,0-2.094-12.1L238.341,181.8s18.95,1.177,15.619,10.666c-4.187,11.923-8,20.951-8,20.951l3.809,1.523s17.887-22.474,13.713-32.378-25.522-9.143-25.522-9.143Z"/>
      <g id="Group_61" data-name="Group 61">
        <path id="Path_105" data-name="Path 105" class="cls-24" d="M252.528,136.938l-3.026,6.384a2.839,2.839,0,0,1-3.794,1.344l-.837-.4-1.415,1.595a2.714,2.714,0,0,1-3.833.229l-.673-.6a3.14,3.14,0,0,1-.265-4.431l6.995-7.884Z"/>
        <path id="Path_106" data-name="Path 106" class="cls-21" d="M241.519,142.433s2.825.69,4.128-.846c0,0-1.466-3.846.045-3.857s1.606,2.926,1.606,2.926,1.071-3.1,1.895-3.422c0,0,3.7,3.276,5.037.566a7.567,7.567,0,0,0-2.411-4.042c-2.21-2.2-6.608-1.046-6.608-1.046Z"/>
      </g>
      <g id="Group_62" data-name="Group 62">
        <path id="Path_107" data-name="Path 107" class="cls-6" d="M243.055,146.219c.018.011-.027.146-.217.3a1.9,1.9,0,0,1-.941.352,6.992,6.992,0,0,1-1.464.049,2.262,2.262,0,0,1-.873-.263,2.379,2.379,0,0,1-.725-.657,5.227,5.227,0,0,1-.951-3.094,2.516,2.516,0,0,1,.261-1.312c.064.013-.037.51.016,1.305a5.642,5.642,0,0,0,.988,2.865,2.074,2.074,0,0,0,.6.559,2.009,2.009,0,0,0,.727.239,9.022,9.022,0,0,0,1.391.033,2.131,2.131,0,0,0,.884-.2C242.944,146.295,243.03,146.2,243.055,146.219Z"/>
      </g>
      <g id="Group_63" data-name="Group 63">
        <path id="Path_108" data-name="Path 108" class="cls-6" d="M231.271,148.4a6.572,6.572,0,0,1-.55,1.017c-.39.656-.935,1.576-1.6,2.705a62.012,62.012,0,0,0-4.642,9.232,31.8,31.8,0,0,0-1.547,5.457,24.549,24.549,0,0,0-.426,4.608,21.88,21.88,0,0,0,.231,3.118,8.089,8.089,0,0,1,.155,1.143.881.881,0,0,1-.1-.283c-.048-.189-.138-.467-.205-.834a18.038,18.038,0,0,1-.358-3.139,23.09,23.09,0,0,1,.348-4.677,30.394,30.394,0,0,1,1.535-5.532,54.263,54.263,0,0,1,4.772-9.237c.706-1.127,1.3-2.026,1.712-2.643A6.518,6.518,0,0,1,231.271,148.4Z"/>
      </g>
      <path id="Path_109" data-name="Path 109" class="cls-21" d="M237.009,140.857a9.377,9.377,0,0,0,4.51,1.576c2.394.073,3.934-10.021,3.934-10.021Z"/>
      <g id="Group_64" data-name="Group 64">
        <path id="Path_110" data-name="Path 110" class="cls-41" d="M227.385,176.889a2.127,2.127,0,0,1,.145,1.058,6.547,6.547,0,0,1-2.077,4.618c-.493.446-.863.632-.889.594s.268-.312.691-.788a8.055,8.055,0,0,0,2-4.443A4.652,4.652,0,0,1,227.385,176.889Z"/>
      </g>
      <g id="Group_65" data-name="Group 65">
        <path id="Path_111" data-name="Path 111" class="cls-41" d="M227.681,184.977a2.557,2.557,0,0,1,.346.373c.218.253.533.629.933,1.118.8.98,1.949,2.4,3.285,4.231a48.833,48.833,0,0,1,4.209,6.747,29.874,29.874,0,0,1,2.986,9.263,125.513,125.513,0,0,1,1.454,17.607c.027,2.262-.016,4.092-.067,5.355-.021.632-.053,1.121-.075,1.453a2.424,2.424,0,0,1-.055.506,2.556,2.556,0,0,1-.024-.508c0-.345,0-.832,0-1.455,0-1.262.005-3.089-.058-5.345a139.7,139.7,0,0,0-1.563-17.549,30.04,30.04,0,0,0-2.923-9.165,51.344,51.344,0,0,0-4.111-6.748c-1.3-1.841-2.418-3.289-3.179-4.3l-.874-1.164A2.412,2.412,0,0,1,227.681,184.977Z"/>
      </g>
      <g id="Group_66" data-name="Group 66">
        <path id="Path_112" data-name="Path 112" class="cls-41" d="M237.743,179.406c.112-.008.23.569.478,1.233s.524,1.182.434,1.249-.537-.385-.8-1.114S237.639,179.407,237.743,179.406Z"/>
      </g>
      <g id="Group_67" data-name="Group 67">
        <path id="Path_113" data-name="Path 113" class="cls-41" d="M236.822,177.028c-.088.07-.681-.547-1.461-1.244s-1.453-1.225-1.393-1.32a3.629,3.629,0,0,1,1.655,1.028C236.431,176.215,236.9,176.965,236.822,177.028Z"/>
      </g>
      <g id="Group_68" data-name="Group 68">
        <path id="Path_114" data-name="Path 114" class="cls-41" d="M240.794,181.048a2.519,2.519,0,0,1,.444-.245,11.712,11.712,0,0,1,1.345-.551,14.247,14.247,0,0,1,8.932-.052,9.02,9.02,0,0,1,3.674,2.162,5.839,5.839,0,0,1,1.264,1.97,8.74,8.74,0,0,1,.519,2.371,24.678,24.678,0,0,1,.062,2.485c-.011.838-.042,1.691-.126,2.553a18.016,18.016,0,0,1-1.2,4.9c-.583,1.522-1.264,2.931-1.883,4.281l-3.33,7.164c-.961,2.033-1.709,3.691-2.307,4.8a13.8,13.8,0,0,1-.747,1.246,2.173,2.173,0,0,1-.311.4,2.871,2.871,0,0,1,.244-.443c.165-.286.4-.711.679-1.274.55-1.124,1.261-2.8,2.19-4.85l3.254-7.2c.61-1.356,1.281-2.766,1.852-4.268a17.825,17.825,0,0,0,1.166-4.8c.083-.846.114-1.689.126-2.52s.013-1.652-.056-2.446a8.365,8.365,0,0,0-.485-2.27,5.491,5.491,0,0,0-1.174-1.854,8.747,8.747,0,0,0-3.518-2.1,14.064,14.064,0,0,0-3.558-.7,14.746,14.746,0,0,0-5.223.592C241.435,180.767,240.81,181.083,240.794,181.048Z"/>
      </g>
    </g>
    <g id="Group_70" data-name="Group 70" class="cls-22">
      <path id="Path_115" data-name="Path 115" class="cls-6" d="M235.791,273.536a1.406,1.406,0,0,1,.79-1.078,2.2,2.2,0,0,1,2.063.024,4.6,4.6,0,0,1,1.791,3.024,9.145,9.145,0,0,0,1.179,3.386,1.527,1.527,0,0,0,.884.654c.657.125,1.224-.437,1.673-.935a10.3,10.3,0,0,1,4.619-3.289,4.5,4.5,0,0,1,5.067,1.684,6.806,6.806,0,0,1,.672,3q.846,12.445,1.69,24.89c.261,3.857.512,7.811-.591,11.515-1,3.348-10.574,13.028-15.151,13.028"/>
    </g>
    <g id="Group_82" data-name="Group 82">
      <g id="Group_71" data-name="Group 71">
        <path id="Path_116" data-name="Path 116" class="cls-24" d="M236.451,357.171l-2.2,44.643-6.391,29.8-3-.825,2.506-29.814-5-30.717-4.445,28.632-9.874,32.837-2.639.091,4.731-32.687-1.3-39.787Z"/>
        <path id="Path_117" data-name="Path 117" class="cls-6" d="M245.877,282.19l-2.949,22.863L228.683,318.8l-12.771.186-4.635,8.054,1.861,7.284a24.54,24.54,0,0,1-1.333,16l-2.955,9.019,27.9,3.212c.916-21.186.488-22.913-2.973-34.958l16.473-21.343.046-24.872Z"/>
        <path id="Path_118" data-name="Path 118" class="cls-6" d="M234.08,281.387c-1.384.759-10.334,23.608-10.334,23.608l.516,14.613-8.35,1.518V304.381L230.5,278.7Z"/>
      </g>
      <g id="Group_72" data-name="Group 72">
        <path id="Path_119" data-name="Path 119" class="cls-24" d="M226.829,304.864l2.552,6.588a2.837,2.837,0,0,1-1.634,3.677l-.868.332.419,4.83-6.727.583-1.182-13.627Z"/>
        <path id="Path_120" data-name="Path 120" class="cls-25" d="M223.112,317.3s2.577-2.241,2.358-4.244c0,0-3.8-1.582-2.769-2.687s3.229.847,3.229.847-1.516-2.911-1.181-3.729c0,0,4.925-.433,3.877-3.266a7.568,7.568,0,0,0-4.592-1.032c-3.115.094-4.368,5.478-4.368,5.478Z"/>
        <path id="Path_121" data-name="Path 121" class="cls-25" d="M224.52,303.534a9.406,9.406,0,0,0-11.793,9.886c.178,2.1,1.046,4.3.226,6.238a7.59,7.59,0,0,1-2.039,2.5,43.038,43.038,0,0,0-6.573,6.836,12.521,12.521,0,0,0-2.486,8.932,7.466,7.466,0,0,0,1.606,3.651c.458.539,1.008,1,1.411,1.584,1.439,2.078.63,4.983,1.512,7.352,1.132,3.041,4.7,4.4,7.923,4.726,4.429.45,9.2-.488,12.468-3.515s4.48-8.421,1.966-12.094c-1.245-1.819-3.361-3.417-3.154-5.61.129-1.364,1.158-2.445,1.749-3.679a6.2,6.2,0,0,0-1.781-7.384c-.8-.611-1.761-1.018-2.506-1.7a2.431,2.431,0,0,1-.8-2.709c.343-.7,1.147-1.075,1.508-1.766.538-1.031-.115-2.28-.875-3.161s-1.7-1.756-1.806-2.914a4.631,4.631,0,0,1,.753-2.5q1.218-2.317,2.437-4.636"/>
      </g>
      <path id="Path_122" data-name="Path 122" class="cls-42" d="M208.85,359.348l-2.015,15.56,15.022,2.423.643-6.155.841,6.006h15.022l-1.612-14.621Z"/>
      <path id="Path_123" data-name="Path 123" class="cls-6" d="M205.689,430.463s9.105-.016,10.228,1.347-10.675.2-10.675.2Z"/>
      <path id="Path_124" data-name="Path 124" class="cls-6" d="M224.169,431.11s8.959-1.62,10.306-.477S224,432.71,224,432.71Z"/>
      <g id="Group_73" data-name="Group 73" class="cls-43">
        <path id="Path_125" data-name="Path 125" d="M228.322,372.978c-.052.1-2.215-.918-4.952-2s-5.007-1.838-4.975-1.948a5.809,5.809,0,0,1,1.537.341c.932.27,2.206.694,3.583,1.241s2.593,1.116,3.456,1.561A5.748,5.748,0,0,1,228.322,372.978Z"/>
      </g>
      <g id="Group_74" data-name="Group 74" class="cls-44">
        <path id="Path_126" data-name="Path 126" d="M222.145,375.719a17.727,17.727,0,0,1-2.246-.425c-1.38-.284-3.295-.623-5.424-.917s-4.067-.507-5.468-.679a13.62,13.62,0,0,1-2.262-.351,12.785,12.785,0,0,1,2.289.075c1.408.1,3.355.273,5.5.566a50.328,50.328,0,0,1,5.432,1.034A10.643,10.643,0,0,1,222.145,375.719Z"/>
      </g>
      <g id="Group_75" data-name="Group 75" class="cls-45">
        <path id="Path_127" data-name="Path 127" d="M237.872,375.008a13.382,13.382,0,0,1-2.216.182c-1.368.072-3.259.165-5.345.294s-3.973.271-5.34.369a13.5,13.5,0,0,1-2.222.094,11.7,11.7,0,0,1,2.194-.369c1.363-.17,3.252-.355,5.344-.485s3.989-.18,5.362-.18A11.567,11.567,0,0,1,237.872,375.008Z"/>
      </g>
      <g id="Group_76" data-name="Group 76" class="cls-46">
        <path id="Path_128" data-name="Path 128" d="M237.269,366.228c.019.043-.312.246-.923.351a4,4,0,0,1-4.119-1.965c-.3-.541-.353-.925-.309-.938s.2.321.542.788a4.369,4.369,0,0,0,3.856,1.839A5.72,5.72,0,0,1,237.269,366.228Z"/>
      </g>
      <g id="Group_77" data-name="Group 77" class="cls-47">
        <path id="Path_129" data-name="Path 129" d="M236.376,377.567a75.049,75.049,0,0,1-1.186-10.781,75.1,75.1,0,0,1,1.186,10.781Z"/>
      </g>
      <g id="Group_78" data-name="Group 78">
        <path id="Path_130" data-name="Path 130" class="cls-48" d="M210.333,400.064a18.275,18.275,0,0,1,3.568.979,5.87,5.87,0,0,1-3.568-.979Z"/>
      </g>
      <g id="Group_79" data-name="Group 79">
        <path id="Path_131" data-name="Path 131" class="cls-48" d="M214.179,399.829a5.264,5.264,0,0,1-3.929-.123,183.546,183.546,0,0,1,3.929.123Z"/>
      </g>
      <g id="Group_80" data-name="Group 80">
        <path id="Path_132" data-name="Path 132" class="cls-48" d="M231.868,400.369a6.82,6.82,0,0,1-3.694.572,13.345,13.345,0,0,1,3.694-.572Z"/>
      </g>
      <g id="Group_81" data-name="Group 81">
        <path id="Path_133" data-name="Path 133" class="cls-48" d="M230.893,399.486c.039.1-.47.39-1.121.68s-1.2.476-1.254.378.433-.442,1.1-.736S230.855,399.386,230.893,399.486Z"/>
      </g>
      <path id="Path_134" data-name="Path 134" class="cls-24" d="M233.314,281.387s3.929-2.106,3.871-2.372c-.169-.776-2.261.188-2.261.188s3.2-3.337,2.705-3.806c-.3-.287-2.259,1.41-2.259,1.41s1.234-1.988.848-2.417-2.2,1.918-2.2,1.918.674-1.5.283-1.87c-.269-.253-3.818,5.773-3.818,5.773Z"/>
      <path id="Path_135" data-name="Path 135" class="cls-24" d="M246.519,282.237s-1.662-4.135-1.446-4.3c.627-.487,1.612,1.594,1.612,1.594s-.31-4.61.368-4.654c.415-.026.829,2.53.829,2.53s.328-2.315.9-2.4c.557-.079.459,2.885.459,2.885s.447-1.586.983-1.616c.368-.02-.778,6.877-.778,6.877Z"/>
    </g>
    <g id="Group_116" data-name="Group 116">
      <g id="Group_107" data-name="Group 107">
        <path id="Path_136" data-name="Path 136" class="cls-49" d="M158.326,378.524,168.6,353.477s28.5,9.6,28.2,10.2-12.437,25.4-12.437,25.4Z"/>
        <g id="Group_83" data-name="Group 83">
          <path id="Path_137" data-name="Path 137" class="cls-6" d="M173.577,357.622a.8.8,0,0,1-.087.172l-.279.474c-.261.433-.612,1.019-1.039,1.731-.873,1.465-2.047,3.507-3.257,5.809s-2.223,4.429-2.934,5.979c-.343.756-.626,1.377-.836,1.838l-.23.5a.763.763,0,0,1-.093.169.719.719,0,0,1,.056-.185c.054-.138.119-.307.2-.512.174-.446.44-1.083.779-1.866.68-1.566,1.677-3.706,2.888-6.013s2.407-4.342,3.311-5.79c.452-.725.826-1.3,1.093-1.7l.311-.455A.68.68,0,0,1,173.577,357.622Z"/>
        </g>
        <g id="Group_84" data-name="Group 84">
          <path id="Path_138" data-name="Path 138" class="cls-6" d="M187.3,364.716a.649.649,0,0,1-.174-.055l-.484-.193c-.419-.172-1.021-.428-1.763-.751-1.484-.645-3.523-1.561-5.756-2.612s-4.241-2.037-5.684-2.768c-.721-.366-1.3-.666-1.7-.88l-.457-.249a.688.688,0,0,1-.154-.1.636.636,0,0,1,.171.064c.13.058.286.13.474.216l1.729.823,5.706,2.716,5.73,2.663,1.736.806.47.227A.682.682,0,0,1,187.3,364.716Z"/>
        </g>
        <g id="Group_85" data-name="Group 85">
          <path id="Path_139" data-name="Path 139" class="cls-6" d="M189.061,362.109a1.24,1.24,0,0,1-.105.235c-.087.168-.2.384-.339.654l-1.273,2.393c-1.079,2.016-2.575,4.8-4.15,7.913s-2.9,5.982-3.8,8.082c-.453,1.049-.812,1.9-1.052,2.5q-.176.419-.284.678a1.3,1.3,0,0,1-.112.233,1.243,1.243,0,0,1,.075-.246c.064-.178.147-.407.25-.694.218-.6.558-1.463.995-2.521.872-2.117,2.182-5,3.758-8.117s3.093-5.891,4.2-7.891l1.328-2.362c.153-.263.276-.475.371-.637A1.282,1.282,0,0,1,189.061,362.109Z"/>
        </g>
        <g id="Group_86" data-name="Group 86">
          <path id="Path_140" data-name="Path 140" class="cls-6" d="M188.338,366.669c-.022.05-3.611-1.514-8.015-3.49s-7.957-3.619-7.935-3.669S176,361.022,180.4,363,188.36,366.619,188.338,366.669Z"/>
        </g>
        <g id="Group_87" data-name="Group 87">
          <path id="Path_141" data-name="Path 141" class="cls-6" d="M175.513,363.657c-.034.048-.7-.385-1.59-.777s-1.656-.6-1.643-.656a6.075,6.075,0,0,1,3.233,1.433Z"/>
        </g>
        <g id="Group_88" data-name="Group 88">
          <path id="Path_142" data-name="Path 142" class="cls-6" d="M174.922,364.161c-.034.049-.706-.413-1.626-.794s-1.717-.543-1.707-.6a5.573,5.573,0,0,1,3.333,1.4Z"/>
        </g>
        <g id="Group_89" data-name="Group 89">
          <path id="Path_143" data-name="Path 143" class="cls-6" d="M174.7,365.065c-.031.047-.732-.37-1.632-.81a17.91,17.91,0,0,1-1.638-.8,5.665,5.665,0,0,1,1.725.622A5.6,5.6,0,0,1,174.7,365.065Z"/>
        </g>
        <g id="Group_90" data-name="Group 90">
          <path id="Path_144" data-name="Path 144" class="cls-6" d="M178.026,363.752c0-.012.066-.055.206-.1a1.21,1.21,0,0,1,.628-.021.856.856,0,0,1,.648.681.741.741,0,0,1-.169.563,1.176,1.176,0,0,1-.493.368,1.063,1.063,0,0,1-.616.058.965.965,0,0,1-.5-.291.83.83,0,0,1-.165-.922.771.771,0,0,1,.48-.413c.148-.039.232-.011.231,0s-.082.016-.206.072a.757.757,0,0,0-.378.4.688.688,0,0,0,.17.741.821.821,0,0,0,.912.176.794.794,0,0,0,.555-.727.72.72,0,0,0-.507-.57,1.312,1.312,0,0,0-.574-.038C178.109,363.747,178.031,363.766,178.026,363.752Z"/>
        </g>
        <g id="Group_91" data-name="Group 91">
          <path id="Path_145" data-name="Path 145" class="cls-6" d="M183.48,366.549a12.738,12.738,0,0,1-3.67-1.582,14.61,14.61,0,0,1,1.85.757A14.4,14.4,0,0,1,183.48,366.549Z"/>
        </g>
        <g id="Group_92" data-name="Group 92">
          <path id="Path_146" data-name="Path 146" class="cls-6" d="M181.108,366.3a1.712,1.712,0,0,1-.911-.249c-.474-.228-.8-.514-.763-.556a16.355,16.355,0,0,1,1.674.805Z"/>
        </g>
        <g id="Group_93" data-name="Group 93">
          <path id="Path_147" data-name="Path 147" class="cls-6" d="M174.922,370.111a.833.833,0,0,1,.14.044l.378.14,1.4.533,4.839,1.888-.111.038,2.525-4.287.088-.149.051.143-6.692-2.43.092-.031c-1.535,2.329-2.383,3.616-2.71,4.111a7.619,7.619,0,0,1,.659-1.165c.448-.73,1.106-1.77,1.92-3.032l.033-.052.059.021,6.705,2.393.112.04-.06.1-.088.148-2.539,4.279-.04.066-.071-.028-4.859-1.99c-.568-.239-1.026-.43-1.363-.571l-.355-.154A.489.489,0,0,1,174.922,370.111Z"/>
        </g>
        <g id="Group_94" data-name="Group 94">
          <path id="Path_148" data-name="Path 148" class="cls-6" d="M173.355,371.506c0-.012.065-.055.206-.1a1.209,1.209,0,0,1,.628-.021.854.854,0,0,1,.647.68.738.738,0,0,1-.169.564,1.167,1.167,0,0,1-.492.368,1.06,1.06,0,0,1-.615.058.964.964,0,0,1-.5-.291.827.827,0,0,1-.165-.922.772.772,0,0,1,.479-.413c.149-.039.233-.011.231,0s-.081.016-.205.072a.756.756,0,0,0-.379.4.691.691,0,0,0,.17.742.821.821,0,0,0,.913.175.791.791,0,0,0,.554-.726.719.719,0,0,0-.506-.57,1.312,1.312,0,0,0-.574-.038C173.437,371.5,173.359,371.52,173.355,371.506Z"/>
        </g>
        <g id="Group_95" data-name="Group 95">
          <path id="Path_149" data-name="Path 149" class="cls-6" d="M178.809,374.3a12.738,12.738,0,0,1-3.67-1.582,14.8,14.8,0,0,1,1.85.757A14.4,14.4,0,0,1,178.809,374.3Z"/>
        </g>
        <g id="Group_96" data-name="Group 96">
          <path id="Path_150" data-name="Path 150" class="cls-6" d="M176.437,374.053a1.721,1.721,0,0,1-.911-.249c-.474-.228-.795-.514-.763-.556a16.647,16.647,0,0,1,1.674.805Z"/>
        </g>
        <g id="Group_97" data-name="Group 97">
          <path id="Path_151" data-name="Path 151" class="cls-6" d="M170.251,377.865a.867.867,0,0,1,.14.044l.378.14,1.4.533,4.839,1.888-.11.038c.768-1.306,1.624-2.758,2.525-4.287l.087-.149.051.143-6.691-2.43.092-.031c-1.535,2.329-2.383,3.616-2.71,4.111a7.6,7.6,0,0,1,.658-1.165c.448-.73,1.107-1.77,1.921-3.032l.033-.052.059.021,6.705,2.393.112.04-.061.1-.087.148-2.54,4.279-.039.066-.071-.028-4.859-1.99c-.568-.239-1.026-.43-1.364-.571l-.354-.154A.488.488,0,0,1,170.251,377.865Z"/>
        </g>
        <g id="Group_98" data-name="Group 98">
          <path id="Path_152" data-name="Path 152" class="cls-6" d="M191.04,363.972c.048.024-2.158,4.476-4.928,9.942s-5.056,9.878-5.1,9.854,2.158-4.476,4.929-9.943S190.992,363.947,191.04,363.972Z"/>
        </g>
        <g id="Group_99" data-name="Group 99">
          <path id="Path_153" data-name="Path 153" class="cls-6" d="M192.3,368.157a18.839,18.839,0,0,1-2.6-.8,19.044,19.044,0,0,1-2.537-.988,19.129,19.129,0,0,1,2.6.8A18.8,18.8,0,0,1,192.3,368.157Z"/>
        </g>
        <g id="Group_100" data-name="Group 100">
          <path id="Path_154" data-name="Path 154" class="cls-6" d="M190.086,369.49a10.544,10.544,0,0,1-1.229-3.992c.056-.01.263.9.6,2S190.138,369.468,190.086,369.49Z"/>
        </g>
        <g id="Group_101" data-name="Group 101">
          <path id="Path_155" data-name="Path 155" class="cls-6" d="M188.654,372.521a3.984,3.984,0,0,1,.125-1.759,4.027,4.027,0,0,1-.125,1.759Z"/>
        </g>
        <g id="Group_102" data-name="Group 102">
          <path id="Path_156" data-name="Path 156" class="cls-6" d="M189.923,371.648a6.328,6.328,0,0,1-1.008.1,6.051,6.051,0,0,1-1.006.129,2.576,2.576,0,0,1,2.014-.233Z"/>
        </g>
        <g id="Group_103" data-name="Group 103">
          <path id="Path_157" data-name="Path 157" class="cls-6" d="M169.287,358.23a14.182,14.182,0,0,1,1.627.75,14.38,14.38,0,0,1,1.615.778,8.953,8.953,0,0,1-3.242-1.528Z"/>
        </g>
        <g id="Group_104" data-name="Group 104">
          <path id="Path_158" data-name="Path 158" class="cls-6" d="M172.328,355.143a46.1,46.1,0,0,1-2.951,5.236,23.187,23.187,0,0,1,1.39-2.666A22.924,22.924,0,0,1,172.328,355.143Z"/>
        </g>
        <g id="Group_105" data-name="Group 105">
          <path id="Path_159" data-name="Path 159" class="cls-6" d="M169.8,357.819c-.054.005-.125-.288-.159-.656s-.017-.669.036-.674.126.289.159.657S169.85,357.815,169.8,357.819Z"/>
        </g>
        <g id="Group_106" data-name="Group 106">
          <path id="Path_160" data-name="Path 160" class="cls-6" d="M171.107,357.032a3.241,3.241,0,0,1-1.071.311,3.2,3.2,0,0,1-1.109.117,3.269,3.269,0,0,1,1.071-.311A3.2,3.2,0,0,1,171.107,357.032Z"/>
        </g>
      </g>
      <path id="Path_161" data-name="Path 161" class="cls-24" d="M186.778,377.444s1.27-4.272,1.544-4.269c.793.01.271,2.252.271,2.252s2.624-3.8,3.181-3.416c.343.237-.924,2.5-.924,2.5s1.7-1.609,2.2-1.317-1.434,2.544-1.434,2.544,1.337-.962,1.775-.653c.3.213-4.886,4.9-4.886,4.9Z"/>
      <path id="Path_162" data-name="Path 162" class="cls-24" d="M186.778,377.444s1.27-4.272,1.544-4.269c.793.01.271,2.252.271,2.252s2.624-3.8,3.181-3.416c.343.237-.924,2.5-.924,2.5s1.7-1.609,2.2-1.317-1.434,2.544-1.434,2.544,1.337-.962,1.775-.653c.3.213-4.886,4.9-4.886,4.9Z"/>
      <g id="Group_108" data-name="Group 108">
        <path id="Path_163" data-name="Path 163" class="cls-24" d="M159.494,473.474l.122,3-2.177.334-.087-3.312Z"/>
        <path id="Path_164" data-name="Path 164" class="cls-6" d="M157.439,476.81s8.959-1.621,10.306-.478-10.474,2.076-10.474,2.076Z"/>
      </g>
      <g id="Group_109" data-name="Group 109">
        <path id="Path_165" data-name="Path 165" class="cls-24" d="M128.11,462.919l-2.5,1.665-1.417-1.686,2.783-1.8Z"/>
        <path id="Path_166" data-name="Path 166" class="cls-6" d="M124.193,462.9s6.042,6.811,5.765,8.555-7.219-7.867-7.219-7.867Z"/>
      </g>
      <path id="Path_167" data-name="Path 167" class="cls-6" d="M163.036,398.785s7.53,6.95,7.656,32.723-8.864,42.875-8.864,42.875h-6.337s10.394-32.362-1.284-53.824a84.023,84.023,0,0,1-24.6,44.127l-5-5.317s15.257-19.169,15.378-43.139c.024-4.748.82-7.151-.832-12.466Z"/>
      <g id="Group_110" data-name="Group 110" class="cls-50">
        <path id="Path_168" data-name="Path 168" class="cls-51" d="M166.181,444.885c-.009.115-1.311.079-2.893.275s-2.839.532-2.875.423a9.281,9.281,0,0,1,5.768-.7Z"/>
      </g>
      <g id="Group_111" data-name="Group 111" class="cls-52">
        <path id="Path_169" data-name="Path 169" class="cls-51" d="M167,442.8c.026.041-.26.294-.8.58a6.834,6.834,0,0,1-4.68.546c-.6-.153-.932-.334-.916-.379a16.8,16.8,0,0,0,3.259.132A16.86,16.86,0,0,0,167,442.8Z"/>
      </g>
      <g id="Group_112" data-name="Group 112" class="cls-53">
        <path id="Path_170" data-name="Path 170" class="cls-51" d="M143.449,440.2a5.113,5.113,0,0,1-2.928-3.926c.112-.035.465,1.025,1.278,2.1S143.514,440.1,143.449,440.2Z"/>
      </g>
      <g id="Group_113" data-name="Group 113" class="cls-54">
        <path id="Path_171" data-name="Path 171" class="cls-55" d="M142.888,440.858c-.057.012-.137-.2-.42-.406s-.746-.455-1.231-.75a7.809,7.809,0,0,1-1.75-1.133,4.535,4.535,0,0,1,1.949.794,6.025,6.025,0,0,1,1.222.886C142.945,440.56,142.939,440.859,142.888,440.858Z"/>
      </g>
      <g id="Group_114" data-name="Group 114" class="cls-56">
        <path id="Path_172" data-name="Path 172" class="cls-51" d="M160.005,422.522a3.285,3.285,0,0,1-1.624-.24,29.611,29.611,0,0,1-3.579-1.637c-1.367-.689-2.6-1.333-3.475-1.815a6.8,6.8,0,0,1-1.388-.854,6.728,6.728,0,0,1,1.513.606c.911.42,2.159,1.023,3.527,1.712s2.579,1.366,3.5,1.728S160.011,422.46,160.005,422.522Z"/>
      </g>
      <path id="Path_173" data-name="Path 173" class="cls-25" d="M135.083,373.9l4.4,34.108,27.706.358-4.139-25.693s13.694,13,19.667,7.609,6.942-10.747,6.942-10.747L186.41,377.3s-4.949,9.422-9.447,6.459c-5.056-3.33-16.362-16.94-27.024-15.25C142.876,369.633,136.173,365.682,135.083,373.9Z"/>
      <g id="Group_115" data-name="Group 115">
        <path id="Path_174" data-name="Path 174" class="cls-24" d="M151.437,353.675l2.553,6.588a2.839,2.839,0,0,1-1.634,3.677l-.868.332.419,4.83-6.727.583L144,356.059Z"/>
        <path id="Path_175" data-name="Path 175" class="cls-6" d="M147.721,366.112s2.576-2.242,2.358-4.245c0,0-3.8-1.582-2.769-2.685s3.229.846,3.229.846-1.516-2.911-1.181-3.729c0,0,4.925-.434,3.876-3.267a7.563,7.563,0,0,0-4.591-1.03c-3.115.094-4.368,5.476-4.368,5.476Z"/>
        <path id="Path_176" data-name="Path 176" class="cls-6" d="M149.129,352.345a9.407,9.407,0,0,0-11.794,9.886c.179,2.1,1.047,4.3.226,6.239a7.584,7.584,0,0,1-2.039,2.5,43.04,43.04,0,0,0-6.573,6.836,12.522,12.522,0,0,0-2.485,8.931,7.465,7.465,0,0,0,1.606,3.652c.458.54,1.008,1,1.41,1.584,1.44,2.079.631,4.983,1.513,7.352,1.131,3.041,4.7,4.4,7.923,4.727,4.429.449,9.2-.49,12.468-3.516s4.479-8.421,1.965-12.1c-1.244-1.818-3.36-3.417-3.153-5.61.129-1.362,1.157-2.444,1.749-3.679a6.2,6.2,0,0,0-1.781-7.382c-.805-.613-1.761-1.019-2.506-1.7a2.431,2.431,0,0,1-.8-2.709c.344-.7,1.148-1.076,1.508-1.765.538-1.032-.115-2.281-.874-3.162s-1.7-1.755-1.806-2.913a4.63,4.63,0,0,1,.752-2.5l2.438-4.636"/>
      </g>
    </g>
    <g id="Group_121" data-name="Group 121">
      <path id="Path_187" data-name="Path 187" class="cls-57" d="M434.485,386.178"/>
    </g>
    <g id="Group_128" data-name="Group 128">
      <circle id="Ellipse_6" data-name="Ellipse 6" class="cls-58" cx="17.859" cy="17.859" r="17.859" transform="translate(55.232 266.284)"/>
      <path id="Path_194" data-name="Path 194" class="cls-58" d="M80.516,299.295,89.206,302l-.648-8.932Z"/>
      <text id="_" data-name="" class="cls-59" transform="translate(76.246 281.525) rotate(180)"><tspan x="0" y="0"></tspan></text>
    </g>
  </g>
</svg>
